<svg id="light" enable-background="new 0 0 24 24" height="512" viewBox="0 0 24 24" width="512" xmlns="http://www.w3.org/2000/svg"><g><path d="m23.5 22h-15c-.276 0-.5-.224-.5-.5s.224-.5.5-.5h15c.276 0 .5.224.5.5s-.224.5-.5.5z"/></g><g><g><path d="m2.5 22c-.131 0-.259-.052-.354-.146-.123-.123-.173-.3-.133-.468l1.09-4.625c.021-.09.067-.173.133-.239l14.143-14.143c.565-.566 1.554-.566 2.121 0l2.121 2.121c.283.283.439.66.439 1.061s-.156.778-.439 1.061l-14.142 14.141c-.065.066-.148.112-.239.133l-4.625 1.09c-.038.01-.077.014-.115.014zm1.544-4.873-.872 3.7 3.7-.872 14.042-14.041c.095-.095.146-.22.146-.354 0-.133-.052-.259-.146-.354l-2.121-2.121c-.19-.189-.518-.189-.707 0zm3.081 3.283h.01z"/></g><g><path d="m17.889 10.146c-.128 0-.256-.049-.354-.146l-3.535-3.536c-.195-.195-.195-.512 0-.707s.512-.195.707 0l3.536 3.536c.195.195.195.512 0 .707-.098.098-.226.146-.354.146z"/></g></g></svg>