<svg version="1.1" xmlns="http://www.w3.org/2000/svg" width="32" height="32" viewBox="0 0 32 32">
<title>ellipsis-horizontal</title>
<path d="M16 7.843c-2.156 0-3.908-1.753-3.908-3.908s1.753-3.908 3.908-3.908c2.156 0 3.908 1.753 3.908 3.908s-1.753 3.908-3.908 3.908zM16 1.98c-1.077 0-1.954 0.877-1.954 1.954s0.877 1.954 1.954 1.954c1.077 0 1.954-0.877 1.954-1.954s-0.877-1.954-1.954-1.954z"></path>
<path d="M16 19.908c-2.156 0-3.908-1.753-3.908-3.908s1.753-3.908 3.908-3.908c2.156 0 3.908 1.753 3.908 3.908s-1.753 3.908-3.908 3.908zM16 14.046c-1.077 0-1.954 0.877-1.954 1.954s0.877 1.954 1.954 1.954c1.077 0 1.954-0.877 1.954-1.954s-0.877-1.954-1.954-1.954z"></path>
<path d="M16 31.974c-2.156 0-3.908-1.753-3.908-3.908s1.753-3.908 3.908-3.908c2.156 0 3.908 1.753 3.908 3.908s-1.753 3.908-3.908 3.908zM16 26.111c-1.077 0-1.954 0.877-1.954 1.954s0.877 1.954 1.954 1.954c1.077 0 1.954-0.877 1.954-1.954s-0.877-1.954-1.954-1.954z"></path>
</svg>
