<svg version="1.1" xmlns="http://www.w3.org/2000/svg" width="32" height="32" viewBox="0 0 32 32">
<title>user</title>
<path d="M16 16c-4.411 0-8-3.589-8-8s3.589-8 8-8 8 3.589 8 8c0 4.411-3.589 8-8 8zM16 2c-3.309 0-6 2.691-6 6s2.691 6 6 6 6-2.691 6-6c0-3.309-2.691-6-6-6z"></path>
<path d="M29 32h-26c-0.553 0-1-0.447-1-1v-6.884c0-1.033 0.528-2.004 1.378-2.535 7.51-4.685 17.741-4.684 25.243-0.001 0.851 0.532 1.379 1.503 1.379 2.536v6.884c0 0.553-0.447 1-1 1zM4 30h24v-5.884c0-0.349-0.168-0.671-0.439-0.84-6.866-4.286-16.252-4.289-23.124 0.001-0.27 0.168-0.438 0.49-0.438 0.839l-0 5.884z"></path>
</svg>
