<svg width="512" height="481" viewBox="0 0 512 481" fill="none" xmlns="http://www.w3.org/2000/svg">
<path d="M255.996 90.086C280.873 90.086 301.039 69.9196 301.039 45.043C301.039 20.1664 280.873 0 255.996 0C231.119 0 210.953 20.1664 210.953 45.043C210.953 69.9196 231.119 90.086 255.996 90.086Z" fill="#57BBDD"/>
<path d="M329.101 61.5769C321.53 95.0169 291.697 120.115 256.001 120.115C220.305 120.115 190.472 95.0169 182.901 61.5769C156.05 67.5599 135.886 91.4829 135.886 120.115V180.173C135.886 196.727 149.361 210.202 165.915 210.202C182.469 210.202 195.944 196.727 195.944 180.173V150.144H316.059V180.173C316.059 196.727 329.534 210.202 346.088 210.202C362.642 210.202 376.117 196.727 376.117 180.173V120.115C376.116 91.4829 355.951 67.5599 329.101 61.5769Z" fill="#57BBDD"/>
<path d="M488.717 366.953C467.172 354.514 439.625 361.894 427.186 383.439C414.748 404.982 422.129 432.531 443.674 444.968C465.217 457.407 493.767 450.025 506.204 428.482C518.643 406.938 510.26 379.391 488.717 366.953Z" fill="#57BBDD"/>
<path d="M461.237 264.402L409.227 234.373C394.89 226.096 376.484 231.028 368.207 245.365C359.93 259.702 364.862 278.108 379.199 286.385L405.205 301.399L345.147 405.422L319.141 390.408C304.804 382.131 286.398 387.063 278.121 401.4C269.844 415.737 274.776 434.143 289.113 442.42L341.123 472.449C365.921 486.765 396.721 481.263 415.326 461.001C390.152 437.725 383.332 399.34 401.18 368.425C419.028 337.51 455.68 324.225 488.426 334.387C496.671 308.144 486.035 278.718 461.237 264.402Z" fill="#57BBDD"/>
<path d="M84.8149 383.44C72.3759 361.895 44.8289 354.514 23.2839 366.954C1.74086 379.392 -6.64314 406.939 5.79686 428.484C18.2339 450.027 46.7839 457.409 68.3269 444.97C89.8719 432.531 97.2529 404.983 84.8149 383.44Z" fill="#57BBDD"/>
<path d="M233.88 401.4C225.603 387.063 207.196 382.132 192.86 390.408L166.854 405.422L106.796 301.399L132.802 286.385C147.139 278.108 152.07 259.701 143.794 245.365C135.517 231.028 117.11 226.097 102.774 234.373L50.7638 264.402C25.9658 278.718 15.3298 308.144 23.5758 334.388C56.3208 324.225 92.9738 337.511 110.822 368.426C128.67 399.341 121.85 437.725 96.6758 461.002C115.281 481.263 146.081 486.766 170.879 472.45L222.889 442.42C237.225 434.143 242.157 415.736 233.88 401.4Z" fill="#57BBDD"/>
<path d="M305.286 326.641V240.945L302.016 241.219C288.902 242.303 276.04 245.438 263.898 250.511L258.143 252.9V338.257L262.334 336.515C274.898 331.287 288.201 328.053 301.763 326.927L305.286 326.641Z" fill="#57BBDD"/>
<path d="M316 253.614H309.571V328.614C309.576 329.731 308.719 330.665 307.604 330.757L302.116 331.207C300.532 331.338 298.952 331.5 297.379 331.693C296.868 331.755 296.361 331.837 295.853 331.908C294.792 332.049 293.733 332.192 292.678 332.36C292.062 332.458 291.451 332.573 290.838 332.681C289.893 332.846 288.946 333.011 288.004 333.197C287.36 333.326 286.718 333.47 286.062 333.609C285.164 333.8 284.266 333.994 283.375 334.207C282.706 334.366 282.04 334.534 281.375 334.704C280.508 334.918 279.645 335.149 278.782 335.39C278.112 335.574 277.441 335.769 276.773 335.965C275.916 336.219 275.071 336.476 274.225 336.746C273.562 336.96 272.899 337.175 272.239 337.388C271.391 337.674 270.548 337.969 269.708 338.274C269.065 338.507 268.422 338.741 267.765 338.987C267.471 339.099 267.179 339.218 266.886 339.332H316V253.614Z" fill="#57BBDD"/>
<path d="M209.984 241.219L206.714 240.945V326.647L210.517 326.97C224.07 328.103 237.362 331.357 249.905 336.613L253.857 338.257V252.9L248.107 250.513C235.965 245.439 223.1 242.303 209.984 241.219Z" fill="#57BBDD"/>
<path d="M196 253.614V339.328H245.149C244.885 339.225 244.621 339.114 244.355 339.015C243.742 338.782 243.124 338.559 242.507 338.334C241.636 338.018 240.767 337.711 239.89 337.417C239.256 337.202 238.62 336.994 237.982 336.791C237.113 336.505 236.24 336.236 235.367 335.985C234.723 335.797 234.081 335.608 233.438 335.428C232.557 335.184 231.674 334.953 230.789 334.726C230.146 334.56 229.503 334.395 228.846 334.241C227.948 334.027 227.045 333.83 226.143 333.636C225.501 333.497 224.857 333.356 224.215 333.227C223.28 333.043 222.342 332.878 221.403 332.713C220.788 332.606 220.173 332.499 219.557 332.389C218.521 332.225 217.482 332.086 216.443 331.945C215.918 331.875 215.397 331.792 214.872 331.732C213.301 331.542 211.729 331.379 210.158 331.246L204.389 330.757C203.277 330.662 202.424 329.729 202.428 328.614V253.614H196Z" fill="#57BBDD"/>
</svg>
