<svg version="1.1" xmlns="http://www.w3.org/2000/svg" width="33" height="32" viewBox="0 0 33 32">
<title>ellipsis-vertical</title>
<path d="M28.723 20c-2.206 0-4-1.794-4-4s1.794-4 4-4c2.206 0 4 1.794 4 4s-1.794 4-4 4zM28.723 14c-1.103 0-2 0.897-2 2s0.897 2 2 2c1.103 0 2-0.897 2-2s-0.898-2-2-2z"></path>
<path d="M16.375 20c-2.206 0-4-1.794-4-4s1.794-4 4-4c2.206 0 4 1.794 4 4s-1.794 4-4 4zM16.375 14c-1.103 0-2 0.897-2 2s0.897 2 2 2c1.103 0 2-0.897 2-2s-0.897-2-2-2z"></path>
<path d="M4.027 20c-2.206 0-4-1.794-4-4s1.794-4 4-4c2.206 0 4 1.794 4 4s-1.794 4-4 4zM4.027 14c-1.103 0-2 0.897-2 2s0.897 2 2 2c1.103 0 2-0.897 2-2s-0.897-2-2-2z"></path>
</svg>
